<svg width="34" height="27" viewBox="0 0 34 27" fill="none" xmlns="http://www.w3.org/2000/svg">
<path d="M3 0.5H31C32.3807 0.5 33.5 1.61929 33.5 3V24C33.5 25.3807 32.3807 26.5 31 26.5H3C1.61929 26.5 0.5 25.3807 0.5 24V3C0.5 1.61929 1.61929 0.5 3 0.5Z" fill="#FFC2AC" stroke="white"/>
<path fill-rule="evenodd" clip-rule="evenodd" d="M20.8531 7.94586H21.8531L22.4182 7.94585L17.0001 1.5L11.582 7.94586H12.1472H13.1472V8.94586V17.9459V18.9459L12.1472 18.9459H11.582L17.0001 25.3917L22.4182 18.9459H21.8531H20.8531V17.9459V8.94586V7.94586ZM22.4182 8.94586C23.268 8.94586 23.7305 7.95295 23.1837 7.30241L17.7656 0.856559C17.366 0.381147 16.6342 0.381147 16.2346 0.856559L10.8165 7.30241C10.2698 7.95287 10.7321 8.94559 11.5817 8.94586L2.5 8.94585C1.39543 8.94585 0.5 9.84128 0.5 10.9459V15.9459C0.5 17.0504 1.39543 17.9459 2.5 17.9459L11.58 17.9459C10.7315 17.9474 10.2701 18.9393 10.8165 19.5893L16.2346 26.0351C16.6342 26.5106 17.366 26.5106 17.7656 26.0351L23.1837 19.5893C23.7305 18.9388 23.268 17.9459 22.4182 17.9459H31.5C32.6046 17.9459 33.5 17.0504 33.5 15.9459V10.9459C33.5 9.84129 32.6046 8.94586 31.5 8.94586H22.4182ZM31.5 9.94586H21.8824V16.9459H31.5C32.0523 16.9459 32.5 16.4981 32.5 15.9459V10.9459C32.5 10.3936 32.0523 9.94586 31.5 9.94586ZM12.1176 16.9459L2.5 16.9459C1.94771 16.9459 1.5 16.4981 1.5 15.9459L1.5 10.9459C1.5 10.3936 1.94772 9.94585 2.5 9.94585L12.1176 9.94586L12.1176 16.9459Z" fill="white"/>
</svg>
