<svg width="54" height="54" viewBox="0 0 54 54" fill="none" xmlns="http://www.w3.org/2000/svg">
<g clip-path="url(#clip0)">
<path d="M21.6219 18.9644L18.8775 35.0694H23.2667L26.0133 18.9644H21.6219Z" fill="#FFC2AC"/>
<path d="M15.1973 18.9825L10.8984 29.9656L10.4401 28.3073C9.5923 26.3091 7.18548 23.4394 4.35983 21.6309L8.29068 35.0615L12.935 35.0536L19.8473 18.9791L15.1973 18.9825Z" fill="#FFC2AC"/>
<path d="M8.77384 20.1351C8.51871 19.1541 7.77928 18.8617 6.86148 18.8267H0.0564452L0 19.1473C5.29569 20.432 8.79981 23.5275 10.2538 27.2495L8.77384 20.1351Z" fill="#FFC2AC"/>
<path d="M34.9091 22.052C36.3451 22.0294 37.3859 22.3433 38.1942 22.6684L38.5905 22.8547L39.1843 19.3641C38.315 19.0378 36.9524 18.6879 35.2523 18.6879C30.915 18.6879 27.858 20.8723 27.8343 24.0027C27.806 26.3159 30.0119 27.6073 31.6782 28.3784C33.3885 29.1686 33.9619 29.671 33.954 30.3765C33.9405 31.4546 32.5903 31.9491 31.3293 31.9491C29.5716 31.9491 28.638 31.7064 27.1964 31.1058L26.6308 30.8484L26.0133 34.453C27.0406 34.9034 28.9361 35.2907 30.9037 35.311C35.5176 35.311 38.5159 33.1525 38.5476 29.8076C38.5667 27.9776 37.3961 26.5812 34.8594 25.4353C33.3241 24.688 32.3849 24.1913 32.3939 23.4372C32.3939 22.7677 33.1909 22.052 34.9091 22.052Z" fill="#FFC2AC"/>
<path d="M50.4485 18.9825H47.0572C46.004 18.9825 45.2205 19.2693 44.7577 20.3191L38.2405 35.0784H42.8498C42.8498 35.0784 43.6017 33.0938 43.7721 32.6592C44.2768 32.6592 48.7551 32.666 49.3929 32.666C49.5239 33.2282 49.9281 35.0784 49.9281 35.0784H54L50.4485 18.9825ZM45.0354 29.3628C45.3966 28.4382 46.7841 24.8618 46.7841 24.8618C46.7603 24.9059 47.1419 23.9305 47.3688 23.3243L47.6646 24.7128C47.6646 24.7128 48.5056 28.5579 48.6817 29.3628H45.0354Z" fill="#FFC2AC"/>
</g>
<defs>
<clipPath id="clip0">
<rect width="54" height="54" fill="white"/>
</clipPath>
</defs>
</svg>
